<svg viewBox="0 0 168 14" fill="none" xmlns="http://www.w3.org/2000/svg">
<g clip-path="url(#clip0_787_1630)">
<path d="M16.2373 13.2407V0.775543H17.3725V13.2407H16.2373Z" fill="#000000"/>
<path d="M28.8357 13.4581C26.7111 13.4581 25.1177 12.9255 24.0553 11.8604C22.9931 10.7953 22.4619 9.17754 22.4619 7.00709C22.4619 5.60396 22.7044 4.42309 23.1893 3.46449C23.6521 2.52933 24.4153 1.76692 25.3628 1.29295C26.326 0.802776 27.5159 0.557688 28.9327 0.557688C29.7402 0.546642 30.5455 0.641506 31.327 0.839729C31.9735 1.00148 32.5813 1.28505 33.1161 1.67443C33.6033 2.04057 33.9904 2.51822 34.2431 3.06506C34.5158 3.68232 34.6492 4.34949 34.6344 5.02141H33.3301C33.3478 4.47283 33.2332 3.92785 32.9957 3.43025C32.7834 3.01427 32.4657 2.65796 32.0727 2.39502C31.6486 2.12092 31.1739 1.92988 30.6749 1.83257C30.1022 1.71387 29.5181 1.65593 28.9327 1.65976C28.2159 1.65161 27.5019 1.74776 26.8142 1.94506C26.2105 2.11937 25.6581 2.43119 25.2024 2.85477C24.7346 3.30382 24.3827 3.85474 24.1757 4.46222C23.9233 5.22482 23.804 6.02337 23.8229 6.8245V7.20599C23.8229 8.44175 24.0213 9.43839 24.4182 10.1959C24.7788 10.9166 25.3803 11.4962 26.1237 11.8393C26.9531 12.1972 27.8537 12.3709 28.7604 12.3479C29.8752 12.3479 30.7669 12.1995 31.4357 11.9029C32.0723 11.6324 32.5859 11.1449 32.8804 10.5318C33.1779 9.91443 33.3267 9.13298 33.3267 8.18742V7.8793H28.4996V6.78864H34.631V13.2397H33.591L33.4238 11.5311C33.1269 11.9907 32.7208 12.3738 32.2399 12.6479C31.7399 12.9363 31.1957 13.1449 30.6281 13.2657C30.0397 13.394 29.4386 13.4585 28.8357 13.4581Z" fill="#000000"/>
<path d="M40.7632 13.2407V0.775543H42.2679V13.2407H40.7632Z" fill="#000000"/>
<path d="M51.5804 13.2407V2.22813H47.1646V0.775543H57.7302V2.22813H53.2959V13.2407H51.5804Z" fill="#000000"/>
<path d="M60.0916 13.2407L65.1227 0.775543H67.6207L72.672 13.2407H70.5836L69.3914 10.2589H63.2417L62.0713 13.2391L60.0916 13.2407ZM63.8753 8.66123H68.7577L67.2662 4.86267C67.216 4.75344 67.1576 4.60508 67.089 4.4176L66.8566 3.7818C66.7697 3.5454 66.6894 3.30737 66.6058 3.06447C66.5222 2.82155 66.4386 2.5982 66.3717 2.39116H66.2597L65.9621 3.22749L65.6277 4.14534C65.5217 4.44206 65.4315 4.68117 65.3568 4.86267L63.8753 8.66123Z" fill="#000000"/>
<path d="M77.1267 13.2407V0.775543H79.2703V11.4229H85.6624V13.2407H77.1267Z" fill="#000000"/>
<path d="M90.2849 13.2419V0.77668H92.6709V5.85827H98.6902V0.77179H101.076V13.2369H98.6902V7.85701H92.6709V13.2369L90.2849 13.2419Z" fill="#000000"/>
<path d="M112.446 13.4582C111.109 13.4582 109.95 13.2251 108.969 12.7588C108.002 12.3005 107.215 11.5481 106.724 10.615C106.203 9.65205 105.941 8.44944 105.941 7.00718C105.941 5.54319 106.203 4.33515 106.724 3.38306C107.221 2.46023 108.007 1.71726 108.969 1.26369C109.945 0.797433 111.104 0.564301 112.446 0.564301C113.813 0.564301 114.983 0.797433 115.957 1.26369C116.916 1.71906 117.699 2.46178 118.194 3.38306C118.716 4.33297 118.977 5.54101 118.977 7.00718C118.977 8.45053 118.716 9.65313 118.194 10.615C117.705 11.5465 116.921 12.2986 115.957 12.7588C114.984 13.2251 113.814 13.4582 112.446 13.4582ZM112.446 11.3389C113.004 11.3487 113.56 11.2598 114.086 11.0764C114.541 10.9112 114.95 10.643 115.278 10.2938C115.615 9.92672 115.865 9.49289 116.014 9.02221C116.191 8.45446 116.277 7.86311 116.267 7.26966V6.78057C116.276 6.1834 116.191 5.5884 116.014 5.01661C115.867 4.54299 115.616 4.10627 115.278 3.73683C114.95 3.38768 114.541 3.11949 114.086 2.9543C113.022 2.6043 111.87 2.6043 110.805 2.9543C110.352 3.11797 109.946 3.38649 109.622 3.73683C109.29 4.10744 109.045 4.5442 108.905 5.01661C108.734 5.58946 108.652 6.18407 108.662 6.78057V7.26966C108.651 7.86244 108.733 8.45337 108.905 9.02221C109.046 9.49171 109.291 9.92558 109.622 10.2938C109.946 10.6442 110.352 10.9127 110.805 11.0764C111.332 11.2579 111.888 11.3446 112.446 11.3323V11.3389Z" fill="#000000"/>
<path d="M129.478 13.4584C128.285 13.4584 127.263 13.2769 126.413 12.9139C125.596 12.5805 124.91 12.0012 124.455 11.2607C124.002 10.5228 123.775 9.60221 123.775 8.49905V0.756836H126.723V8.41918C126.723 9.27997 126.959 9.94947 127.431 10.4277C127.905 10.9059 128.582 11.1451 129.463 11.1451C130.355 11.1451 131.042 10.9059 131.523 10.4277C132.004 9.94947 132.244 9.27997 132.241 8.41918V0.756836H135.203V8.49905C135.203 9.60113 134.973 10.5217 134.512 11.2607C134.052 11.9996 133.365 12.578 132.548 12.9139C131.695 13.2779 130.672 13.4594 129.478 13.4584Z" fill="#000000"/>
<path d="M145.859 13.4581C145.095 13.4628 144.334 13.3929 143.584 13.2494C142.925 13.1278 142.292 12.8973 141.712 12.568C141.185 12.2666 140.745 11.8383 140.436 11.3241C140.108 10.7435 139.947 10.0873 139.97 9.42482V9.26178C139.968 9.21279 139.975 9.16388 139.988 9.11668H143.214C143.213 9.16194 143.21 9.20712 143.204 9.252C143.198 9.29742 143.194 9.34314 143.194 9.38894C143.177 9.7268 143.286 10.0591 143.501 10.3247C143.732 10.5757 144.034 10.753 144.369 10.8334C144.794 10.9456 145.233 11.0005 145.673 10.9964C145.928 10.997 146.183 10.9845 146.437 10.9589C146.652 10.9386 146.865 10.8959 147.071 10.8317C147.248 10.778 147.417 10.7018 147.573 10.6051C147.705 10.5245 147.814 10.4123 147.89 10.2791C147.96 10.1408 147.995 9.98819 147.992 9.83401C147.994 9.70182 147.965 9.57096 147.907 9.45144C147.849 9.33192 147.764 9.22689 147.658 9.1444C147.398 8.93963 147.1 8.78523 146.781 8.68955C146.415 8.56891 146.002 8.45371 145.543 8.34393C145.082 8.2347 144.604 8.12058 144.108 7.99832C143.619 7.88022 143.139 7.72877 142.672 7.54509C142.227 7.37172 141.811 7.13909 141.433 6.85385C141.064 6.57348 140.765 6.21645 140.556 5.80884C140.166 5.05388 140.081 4.18319 140.32 3.37019C140.558 2.55719 141.102 1.86153 141.843 1.42175C142.381 1.10525 142.969 0.880831 143.584 0.758221C144.277 0.615161 144.983 0.545199 145.692 0.549545C146.385 0.545027 147.076 0.617774 147.752 0.76637C148.355 0.898442 148.931 1.12883 149.455 1.44783C149.955 1.74269 150.367 2.16094 150.648 2.66041C150.93 3.15988 151.072 3.72289 151.059 4.29268V4.5095H147.853V4.38235C147.858 4.11947 147.776 3.86207 147.621 3.64708C147.441 3.41746 147.199 3.24131 146.923 3.13844C146.554 3.00142 146.161 2.9366 145.766 2.9477C145.373 2.9395 144.979 2.98226 144.596 3.07485C144.327 3.13551 144.076 3.26041 143.869 3.4384C143.789 3.50982 143.726 3.59678 143.683 3.69367C143.639 3.79056 143.617 3.89521 143.618 4.00085C143.617 4.12757 143.647 4.25275 143.705 4.36611C143.763 4.47946 143.848 4.57776 143.952 4.65296C144.219 4.84743 144.519 4.99478 144.837 5.08826C145.211 5.2089 145.627 5.32085 146.087 5.4241C146.546 5.52843 147.021 5.63603 147.512 5.75016C147.996 5.8642 148.472 6.00962 148.937 6.18544C149.383 6.35405 149.802 6.58054 150.186 6.85874C150.554 7.12642 150.857 7.47056 151.072 7.86626C151.304 8.31694 151.419 8.81633 151.407 9.32047C151.407 10.3128 151.167 11.1122 150.689 11.7186C150.182 12.3441 149.493 12.8065 148.713 13.0457C147.791 13.3358 146.827 13.4751 145.859 13.4581Z" fill="#000000"/>
<path d="M156.183 13.2408V0.738159H167.124V3.60909H160.061V5.51815H166.38V8.27985H160.061V10.3699H167.25V13.2408H156.183Z" fill="#000000"/>
<path d="M6.11235 13.2263H0.248535V0.777405H6.11235C7.45338 0.7787 8.73911 1.2987 9.68736 2.22327C10.6356 3.14785 11.1689 4.40148 11.1702 5.70902V8.3028C11.1667 9.60893 10.6324 10.8605 9.68441 11.7833C8.73639 12.7061 7.45194 13.225 6.11235 13.2263ZM1.26346 12.2383H6.11235C7.18321 12.237 8.20995 11.8223 8.96793 11.0847C9.72593 10.3472 10.1535 9.3469 10.157 8.3028V5.70902C10.1557 4.66349 9.72911 3.66115 8.97089 2.92186C8.21266 2.18256 7.18465 1.76665 6.11235 1.76536H1.26346V12.2383Z" fill="#000000"/>
</g>
<defs>
<clipPath id="clip0_787_1630">
<rect width="168" height="12.92" fill="#000000" transform="translate(0 0.540009)"/>
</clipPath>
</defs>
</svg>
